<?xml version="1.0" encoding="utf-8"?>
<!-- Generator: Adobe Illustrator 26.0.2, SVG Export Plug-In . SVG Version: 6.00 Build 0)  -->
<svg version="1.1" id="Ebene_1" xmlns:v="https://vecta.io/nano"
	 xmlns="http://www.w3.org/2000/svg" xmlns:xlink="http://www.w3.org/1999/xlink" x="0px" y="0px" viewBox="0 0 54 52.6"
	 style="enable-background:new 0 0 54 52.6;" xml:space="preserve">
<style type="text/css">
	.st0{fill:#FFFFFF;}
</style>
<path class="st0" d="M49.9,13.4l1,4.9L23.1,52.6h-5L49.9,13.4L49.9,13.4z M51.9,23.2l2,8.9c0.3,1,0,2.1-0.7,3l0,0L40.1,51.3
	c-0.7,0.7-1.7,1.3-2.9,1.3l0,0h-9.1L51.9,23.2L51.9,23.2z M44.6,7.8l3,1.4c0.1,0.1,0.3,0.1,0.4,0.3l0,0L13.9,51.8
	c0-0.1-0.1-0.3-0.3-0.4l0,0l-2.2-2.7L44.6,7.8z M37.4,4.4l3.5,1.7L9,45.5l-2.4-3L37.4,4.4z M25.7,0.3c1-0.4,2.2-0.4,3.2,0l0,0
	l4.9,2.4L23,16.1c-0.4-1-1.2-1.9-2-2.6c-3-2.6-7.3-2-9.9,1s-2,7.4,1,9.9c0.9,0.7,1.9,1.1,2.9,1.4l0,0L4.1,39.3L0.8,35
	c-0.7-0.9-1-2-0.7-3l0,0l4.7-20.3c0.1-0.4,0.3-0.9,0.6-1.3C5.8,10,6.3,9.5,6.8,9.3l0,0L25.7,0.3z M13.9,17c1.2-1.3,3-1.6,4.5-0.4
	c1.4,1,1.6,3,0.4,4.4l0,0l-0.1,0.1c-1.2,1.2-2.9,1.4-4.3,0.3C13.1,20.3,12.8,18.4,13.9,17z"/>
</svg>
